<mxfile host="app.diagrams.net" modified="2023-07-17T12:13:37.335Z" agent="Mozilla/5.0 (Windows NT 10.0; Win64; x64) AppleWebKit/537.36 (KHTML, like Gecko) Chrome/114.0.0.0 Safari/537.36" version="21.6.2" etag="qQVrnYz5vD8YQqbZvt_D" type="github">
  <diagram name="Page-1" id="Kvi3evwQPPcoqLSW2blJ">
    <mxGraphModel>
      <root>
        <mxCell id="0" />
        <mxCell id="1" parent="0" />
      </root>
    </mxGraphModel>
  </diagram>
</mxfile>
